<svg id="0cee454d-848d-479c-9fc6-7b2330dc8b79" data-name="Layer 1" xmlns="http://www.w3.org/2000/svg" viewBox="0 0 93.5 93.5"><title>ext_icon</title><path d="M5.88,5.88H88.13V88.13H5.88V5.88Z" style="fill:#fff"/><path d="M0,0V93.5H93.5V0H0Z" style="fill:#00adef"/><path d="M70.72,36Q70.4,42.9,61,55,51.35,67.54,44.65,67.55q-4.15,0-7-7.67L33.79,45.82q-2.13-7.67-4.57-7.67-0.53,0-3.73,2.24l-2.23-2.88q3.51-3.09,6.93-6.18,4.69-4.05,7-4.27,5.54-.53,6.82,7.58Q45.43,43.39,46,45.53q1.6,7.26,3.52,7.26,1.49,0,4.48-4.71t3.2-7.17q0.43-4.07-3.2-4.07a8.89,8.89,0,0,0-3.51.78q3.5-11.47,13.37-11.15Q71.14,26.68,70.72,36Z" style="fill:#fff"/></svg>